<?xml version="1.0" standalone="no"?>
<!DOCTYPE svg PUBLIC "-//W3C//DTD SVG 20010904//EN"
 "http://www.w3.org/TR/2001/REC-SVG-20010904/DTD/svg10.dtd">
<svg version="1.0" xmlns="http://www.w3.org/2000/svg"
 width="2517.000000pt" height="1246.000000pt" viewBox="0 0 2517.000000 1246.000000"
 preserveAspectRatio="xMidYMid meet">

<g transform="translate(0.000000,1246.000000) scale(0.100000,-0.100000)"
fill="#000000" stroke="none">
<path d="M9946 12323 c-21 -65 -54 -145 -72 -179 -33 -59 -34 -64 -50 -275
l-17 -214 -241 -616 -241 -616 -71 131 c-90 167 -205 354 -262 430 -49 63
-116 112 -169 122 -35 7 -102 -16 -123 -41 -5 -7 -17 -262 -26 -606 l-17 -594
100 -306 100 -306 -167 -633 c-169 -642 -170 -645 -211 -649 -10 -1 -27 111
-34 224 -4 55 -11 115 -17 132 -20 67 -86 90 -168 57 -34 -14 -40 -21 -40 -45
0 -16 -7 -125 -15 -242 l-16 -212 -34 -35 c-30 -31 -39 -53 -71 -180 l-36
-145 -9 -320 c-5 -176 -12 -343 -15 -371 l-5 -50 -677 -231 c-372 -127 -679
-229 -682 -227 -2 3 -34 591 -70 1307 l-67 1302 -39 118 c-21 64 -41 117 -44
117 -4 0 -24 -46 -45 -101 -31 -82 -50 -114 -97 -168 -32 -36 -58 -70 -58 -76
0 -5 -15 -219 -34 -475 -31 -443 -34 -467 -58 -515 -22 -44 -40 -153 -148
-925 -68 -481 -128 -880 -134 -887 -20 -21 -892 -287 -982 -300 l-42 -5 -6 53
c-3 30 -8 131 -11 224 -5 156 -9 191 -59 430 -75 363 -105 439 -170 433 -42
-4 -81 -64 -125 -193 -19 -55 -45 -115 -58 -134 -22 -33 -65 -157 -79 -231 -4
-19 -20 -58 -36 -87 -38 -67 -46 -141 -24 -215 10 -36 16 -94 16 -160 l0 -104
-40 -30 -40 -29 0 -145 c0 -159 -14 -383 -31 -500 -21 -150 -80 -286 -183
-423 -86 -114 -94 -120 -149 -106 -40 10 -51 9 -84 -7 -33 -16 -43 -30 -73
-101 -19 -45 -38 -85 -42 -89 -11 -10 -47 25 -68 66 -9 19 -27 67 -40 105 -12
39 -26 74 -31 79 -4 5 -12 -11 -18 -35 -16 -64 -68 -202 -113 -299 -26 -56
-43 -114 -53 -175 -37 -232 -190 -1558 -235 -2045 -12 -124 -26 -243 -31 -265
-17 -64 -59 -132 -114 -184 -88 -83 -184 -122 -362 -145 -273 -37 -361 -171
-253 -387 16 -34 59 -93 95 -131 99 -107 110 -180 37 -250 -71 -69 -215 -125
-438 -171 -226 -48 -392 -70 -1054 -142 -448 -49 -688 -118 -876 -250 -33 -24
-66 -50 -73 -59 -12 -15 1068 -16 12565 -16 l12579 1 -59 56 c-70 65 -163 113
-222 113 -22 0 -578 90 -1235 199 -657 110 -1264 208 -1349 219 -189 25 -184
21 -194 159 -4 54 -20 204 -37 333 -31 248 -185 1340 -194 1377 -3 12 -31 41
-63 63 -304 220 -1146 405 -2402 529 -310 31 -645 58 -779 63 l-74 3 -9 -35
c-5 -19 -16 -42 -24 -50 -14 -13 -18 -12 -41 14 l-25 30 7 280 7 281 -216
1418 -216 1418 16 137 c16 128 19 141 56 202 50 83 71 157 72 245 1 68 -3 81
-156 455 l-157 385 -141 1029 c-121 888 -143 1031 -159 1042 -10 7 -40 31 -68
52 l-50 40 -13 106 c-7 59 -16 103 -20 99 -4 -4 -24 -62 -44 -128 -34 -112
-45 -187 -170 -1180 l-134 -1060 -40 -110 c-22 -60 -43 -109 -46 -108 -4 1
-91 74 -194 163 -250 217 -279 265 -312 510 -6 46 -16 92 -21 102 -14 25 -51
22 -78 -6 -20 -22 -26 -45 -40 -175 -10 -83 -19 -152 -22 -154 -2 -2 -20 -13
-41 -26 l-36 -22 -6 28 c-3 15 -10 66 -17 113 -28 210 -155 273 -227 112 -18
-40 -43 -246 -170 -1437 l-149 -1390 25 -297 25 -297 -58 -133 -58 -133 -98
-985 c-54 -542 -99 -995 -99 -1007 0 -20 -5 -23 -43 -23 l-42 0 -243 486 -243
486 -90 487 c-121 657 -105 589 -143 608 -25 11 -37 27 -49 62 -9 25 -35 100
-59 166 l-42 120 -42 -193 c-35 -161 -46 -198 -67 -220 -22 -23 -55 -135 -207
-687 l-181 -660 -60 -103 -59 -104 0 -450 0 -450 75 -133 75 -133 -20 -209
c-11 -114 -23 -230 -26 -257 l-6 -49 -312 8 c-171 4 -313 9 -315 11 -3 2 -23
502 -46 1110 -48 1276 -52 1170 50 1403 l59 133 -42 127 c-42 127 -42 127 -42
279 0 152 -24 738 -35 862 -13 133 -48 239 -108 324 l-21 30 -27 -60 -27 -59
-13 50 c-9 37 -26 64 -65 106 l-53 55 -107 575 c-58 315 -108 583 -110 594 -5
27 -126 177 -134 168 -4 -5 -24 -75 -44 -158 -29 -115 -40 -183 -47 -295 -9
-144 -11 -153 -300 -1313 l-292 -1167 42 -59 41 -59 -33 -189 c-26 -145 -37
-187 -48 -185 -8 2 -168 64 -356 138 l-343 135 0 763 c0 794 12 1134 45 1236
25 76 64 249 85 370 42 246 54 412 54 750 l1 325 -253 830 -253 830 -349 1523
c-346 1505 -350 1524 -380 1549 -17 14 -39 33 -50 42 -12 9 -24 38 -30 67 -8
48 -78 204 -90 204 -3 0 -23 -53 -44 -117z"/>
</g>
</svg>
